<?xml version="1.0" encoding="UTF-8"?>
<!DOCTYPE svg PUBLIC "-//W3C//DTD SVG 1.1//EN" "http://www.w3.org/Graphics/SVG/1.1/DTD/svg11.dtd">
<svg xmlns="http://www.w3.org/2000/svg" version="1.1" width="500px" height="500px" style="shape-rendering:geometricPrecision; text-rendering:geometricPrecision; image-rendering:optimizeQuality; fill-rule:evenodd; clip-rule:evenodd" xmlns:xlink="http://www.w3.org/1999/xlink">
<g><path style="opacity:1" fill="#b8dbcd" d="M 166.5,122.5 C 183.955,126.348 192.621,137.348 192.5,155.5C 191.391,155.557 190.391,155.89 189.5,156.5C 189.92,154.906 190.586,153.406 191.5,152C 191.108,150.989 190.441,150.489 189.5,150.5C 189.789,144.878 187.955,139.878 184,135.5C 183.667,136.167 183.333,136.833 183,137.5C 180.936,134.726 178.436,132.893 175.5,132C 176.833,133.333 178.167,134.667 179.5,136C 177.953,136.333 176.62,135.833 175.5,134.5C 174.646,135.522 173.646,136.355 172.5,137C 174.792,138.29 176.792,139.957 178.5,142C 177.833,142.333 177.167,142.667 176.5,143C 178.638,144.422 179.805,146.255 180,148.5C 178.578,146.362 176.745,145.195 174.5,145C 175.833,146.333 177.167,147.667 178.5,149C 178.167,149.167 177.833,149.333 177.5,149.5C 175.772,147.774 173.772,146.441 171.5,145.5C 171.94,146.953 171.274,148.119 169.5,149C 169.833,149.333 170.167,149.667 170.5,150C 168.494,150.083 167.494,150.583 167.5,151.5C 166.047,152.825 166.381,153.658 168.5,154C 167.062,154.219 165.729,154.719 164.5,155.5C 166.824,156.662 169.158,157.829 171.5,159C 170.692,159.308 170.025,159.808 169.5,160.5C 170.5,161.333 171.5,162.167 172.5,163C 171.906,163.464 171.239,163.631 170.5,163.5C 166.603,160.865 162.269,159.198 157.5,158.5C 154.482,158.665 151.482,158.498 148.5,158C 152.358,157.921 156.024,157.254 159.5,156C 156.775,154.805 154.109,154.472 151.5,155C 152.56,153.702 153.726,152.535 155,151.5C 156.868,152.71 158.368,152.21 159.5,150C 158.263,149.768 157.263,149.268 156.5,148.5C 154.958,147.837 153.291,147.17 151.5,146.5C 154.107,145.682 156.774,145.182 159.5,145C 141.173,143.965 141.506,142.965 160.5,142C 157.518,141.502 154.518,141.335 151.5,141.5C 155.483,139.063 154.816,137.896 149.5,138C 151.715,137.83 153.715,137.163 155.5,136C 151.5,135.667 147.5,135.333 143.5,135C 146.371,134.882 149.038,134.216 151.5,133C 147.5,132.667 143.5,132.333 139.5,132C 147.873,131.464 156.206,131.464 164.5,132C 164.833,131.667 165.167,131.333 165.5,131C 161.558,130.007 157.558,129.34 153.5,129C 156.882,128.824 160.215,128.324 163.5,127.5C 161.577,126.692 159.577,126.192 157.5,126C 159.715,125.83 161.715,125.163 163.5,124C 162.167,123.667 160.833,123.333 159.5,123C 162.063,122.874 164.396,122.707 166.5,122.5 Z"/></g>
<g><path style="opacity:1" fill="#d2e2e2" d="M 117.5,149.5 C 115.292,150.894 113.792,152.894 113,155.5C 112.206,158.471 111.539,161.471 111,164.5C 110.583,163.244 109.75,162.577 108.5,162.5C 108.662,160.473 108.495,158.473 108,156.5C 107.882,159.371 107.216,162.038 106,164.5C 105.667,160.833 105.333,157.167 105,153.5C 104.796,160.843 104.796,168.176 105,175.5C 104.881,179.005 103.714,182.005 101.5,184.5C 101.5,182.833 101.5,181.167 101.5,179.5C 87.8333,179.5 74.1667,179.5 60.5,179.5C 71.9019,178.824 83.4019,178.157 95,177.5C 95.5,176.5 96,175.5 96.5,174.5C 95.1795,163.372 95.1795,152.372 96.5,141.5C 96.3433,142.873 96.51,144.207 97,145.5C 99.878,138.905 101.378,138.905 101.5,145.5C 107.477,138.837 114.81,134.17 123.5,131.5C 124.167,131.667 124.833,131.833 125.5,132C 124.5,132.333 123.5,132.667 122.5,133C 123.167,133.167 123.833,133.333 124.5,133.5C 129.133,132.447 133.799,132.281 138.5,133C 131.952,133.887 125.618,135.554 119.5,138C 127.152,137.373 134.818,136.54 142.5,135.5C 142.5,136.5 142.5,137.5 142.5,138.5C 144.199,138.34 145.866,138.506 147.5,139C 139.147,139.37 131.147,141.203 123.5,144.5C 118.969,142.758 115.302,143.925 112.5,148C 114.544,148.048 116.544,147.548 118.5,146.5C 118.833,146.667 119.167,146.833 119.5,147C 118.619,147.708 117.953,148.542 117.5,149.5 Z"/></g>
<g><path style="opacity:1" fill="#e3ebea" d="M 166.5,122.5 C 164.396,122.707 162.063,122.874 159.5,123C 160.833,123.333 162.167,123.667 163.5,124C 161.715,125.163 159.715,125.83 157.5,126C 159.577,126.192 161.577,126.692 163.5,127.5C 160.215,128.324 156.882,128.824 153.5,129C 157.558,129.34 161.558,130.007 165.5,131C 165.167,131.333 164.833,131.667 164.5,132C 156.206,131.464 147.873,131.464 139.5,132C 143.5,132.333 147.5,132.667 151.5,133C 149.038,134.216 146.371,134.882 143.5,135C 147.5,135.333 151.5,135.667 155.5,136C 153.715,137.163 151.715,137.83 149.5,138C 154.816,137.896 155.483,139.063 151.5,141.5C 142.277,140.977 133.61,142.811 125.5,147C 128.514,147.128 131.514,147.128 134.5,147C 130.969,148.606 127.302,149.772 123.5,150.5C 122.304,150.154 122.304,149.654 123.5,149C 121.455,148.51 119.455,148.677 117.5,149.5C 117.953,148.542 118.619,147.708 119.5,147C 119.167,146.833 118.833,146.667 118.5,146.5C 116.544,147.548 114.544,148.048 112.5,148C 115.302,143.925 118.969,142.758 123.5,144.5C 131.147,141.203 139.147,139.37 147.5,139C 145.866,138.506 144.199,138.34 142.5,138.5C 142.5,137.5 142.5,136.5 142.5,135.5C 134.818,136.54 127.152,137.373 119.5,138C 125.618,135.554 131.952,133.887 138.5,133C 133.799,132.281 129.133,132.447 124.5,133.5C 123.833,133.333 123.167,133.167 122.5,133C 123.5,132.667 124.5,132.333 125.5,132C 124.833,131.833 124.167,131.667 123.5,131.5C 114.81,134.17 107.477,138.837 101.5,145.5C 101.378,138.905 99.878,138.905 97,145.5C 96.51,144.207 96.3433,142.873 96.5,141.5C 100.496,133.339 106.83,127.839 115.5,125C 132.453,120.146 149.453,119.313 166.5,122.5 Z"/></g>
<g><path style="opacity:1" fill="#8ac5ae" d="M 189.5,156.5 C 189.318,158.591 189.652,160.591 190.5,162.5C 188.522,162.738 186.855,164.071 185.5,166.5C 185.705,169.013 185.872,171.68 186,174.5C 184.887,173.695 183.721,173.028 182.5,172.5C 179.703,170.205 177.036,167.705 174.5,165C 176.387,164.837 177.887,165.671 179,167.5C 180.395,166.185 181.395,166.519 182,168.5C 182.374,167.584 182.874,166.75 183.5,166C 181.743,163.154 179.743,160.488 177.5,158C 178.167,157.667 178.833,157.333 179.5,157C 177.487,153.931 174.82,152.265 171.5,152C 172.696,152.654 172.696,153.154 171.5,153.5C 170.14,152.82 168.807,152.153 167.5,151.5C 167.494,150.583 168.494,150.083 170.5,150C 170.167,149.667 169.833,149.333 169.5,149C 171.274,148.119 171.94,146.953 171.5,145.5C 173.772,146.441 175.772,147.774 177.5,149.5C 177.833,149.333 178.167,149.167 178.5,149C 177.167,147.667 175.833,146.333 174.5,145C 176.745,145.195 178.578,146.362 180,148.5C 179.805,146.255 178.638,144.422 176.5,143C 177.167,142.667 177.833,142.333 178.5,142C 176.792,139.957 174.792,138.29 172.5,137C 173.646,136.355 174.646,135.522 175.5,134.5C 176.62,135.833 177.953,136.333 179.5,136C 178.167,134.667 176.833,133.333 175.5,132C 178.436,132.893 180.936,134.726 183,137.5C 183.333,136.833 183.667,136.167 184,135.5C 187.955,139.878 189.789,144.878 189.5,150.5C 190.441,150.489 191.108,150.989 191.5,152C 190.586,153.406 189.92,154.906 189.5,156.5 Z"/></g>
<g><path style="opacity:1" fill="#c2e2e3" d="M 151.5,141.5 C 154.518,141.335 157.518,141.502 160.5,142C 141.506,142.965 141.173,143.965 159.5,145C 156.774,145.182 154.107,145.682 151.5,146.5C 153.291,147.17 154.958,147.837 156.5,148.5C 154.833,148.5 153.167,148.5 151.5,148.5C 151.677,150.981 150.677,152.814 148.5,154C 149.167,154.333 149.833,154.667 150.5,155C 148.782,155.346 147.115,155.846 145.5,156.5C 145.105,163.392 141.438,166.559 134.5,166C 132.667,168.5 130.833,171 129,173.5C 126.285,172.335 123.952,173.002 122,175.5C 120.506,171.696 119.672,172.029 119.5,176.5C 115.833,176.5 112.167,176.5 108.5,176.5C 108.5,171.833 108.5,167.167 108.5,162.5C 109.75,162.577 110.583,163.244 111,164.5C 111.539,161.471 112.206,158.471 113,155.5C 113.792,152.894 115.292,150.894 117.5,149.5C 119.455,148.677 121.455,148.51 123.5,149C 122.304,149.654 122.304,150.154 123.5,150.5C 127.302,149.772 130.969,148.606 134.5,147C 131.514,147.128 128.514,147.128 125.5,147C 133.61,142.811 142.277,140.977 151.5,141.5 Z"/></g>
<g><path style="opacity:1" fill="#599583" d="M 192.5,155.5 C 192.5,155.833 192.5,156.167 192.5,156.5C 192.5,160.167 192.5,163.833 192.5,167.5C 190.689,171.56 189.689,176.06 189.5,181C 189.525,182.876 190.191,184.376 191.5,185.5C 192.341,187.812 193.341,190.145 194.5,192.5C 194.167,192.5 193.833,192.5 193.5,192.5C 189.851,185.873 186.185,179.206 182.5,172.5C 183.721,173.028 184.887,173.695 186,174.5C 185.872,171.68 185.705,169.013 185.5,166.5C 186.855,164.071 188.522,162.738 190.5,162.5C 189.652,160.591 189.318,158.591 189.5,156.5C 190.391,155.89 191.391,155.557 192.5,155.5 Z"/></g>
<g><path style="opacity:1" fill="#b1eaeb" d="M 156.5,148.5 C 157.263,149.268 158.263,149.768 159.5,150C 158.368,152.21 156.868,152.71 155,151.5C 153.726,152.535 152.56,153.702 151.5,155C 154.109,154.472 156.775,154.805 159.5,156C 156.024,157.254 152.358,157.921 148.5,158C 151.482,158.498 154.482,158.665 157.5,158.5C 157.66,160.199 157.494,161.866 157,163.5C 154.982,165.35 153.149,167.35 151.5,169.5C 152.246,170.736 152.579,172.07 152.5,173.5C 150.66,175.168 148.66,176.668 146.5,178C 140.253,178.295 134.086,179.128 128,180.5C 127.055,180.095 126.388,179.428 126,178.5C 125.751,179.624 125.251,180.624 124.5,181.5C 122.799,180.198 121.632,178.531 121,176.5C 120.79,178.058 120.29,179.391 119.5,180.5C 119.5,179.167 119.5,177.833 119.5,176.5C 119.672,172.029 120.506,171.696 122,175.5C 123.952,173.002 126.285,172.335 129,173.5C 130.833,171 132.667,168.5 134.5,166C 141.438,166.559 145.105,163.392 145.5,156.5C 147.115,155.846 148.782,155.346 150.5,155C 149.833,154.667 149.167,154.333 148.5,154C 150.677,152.814 151.677,150.981 151.5,148.5C 153.167,148.5 154.833,148.5 156.5,148.5 Z"/></g>
<g><path style="opacity:1" fill="#1f322d" d="M 192.5,167.5 C 192.034,173.491 191.701,179.491 191.5,185.5C 190.191,184.376 189.525,182.876 189.5,181C 189.689,176.06 190.689,171.56 192.5,167.5 Z"/></g>
<g><path style="opacity:1" fill="#010202" d="M 106.5,177.5 C 110.5,177.5 114.5,177.5 118.5,177.5C 118.173,187.015 118.506,196.348 119.5,205.5C 126.045,200.71 133.045,200.21 140.5,204C 142.402,205.73 144.069,207.563 145.5,209.5C 146.474,219.418 146.807,229.418 146.5,239.5C 142.167,239.5 137.833,239.5 133.5,239.5C 133.666,231.493 133.5,223.493 133,215.5C 130.11,211.172 126.277,210.339 121.5,213C 120.299,213.903 119.465,215.069 119,216.5C 118.5,224.159 118.334,231.826 118.5,239.5C 117.167,239.5 115.833,239.5 114.5,239.5C 111.833,239.5 109.167,239.5 106.5,239.5C 106.5,218.833 106.5,198.167 106.5,177.5 Z"/></g>
<g><path style="opacity:0.957" fill="#0a0c08" d="M 385.5,238.5 C 385.283,234.94 384.283,234.94 382.5,238.5C 359.568,242.301 351.068,232.968 357,210.5C 360.665,204.246 366.165,200.913 373.5,200.5C 377.398,201.91 381.398,202.91 385.5,203.5C 385.334,194.827 385.5,186.16 386,177.5C 389.744,176.374 393.577,176.207 397.5,177C 399.045,178.822 399.712,180.989 399.5,183.5C 398.734,201.822 398.234,220.155 398,238.5C 393.866,239.74 389.699,239.74 385.5,238.5 Z M 374.5,212.5 C 383.153,211.987 386.653,215.987 385,224.5C 381.12,229.465 376.453,230.465 371,227.5C 366.845,221.036 368.012,216.036 374.5,212.5 Z"/></g>
<g><path style="opacity:0.917" fill="#70dabf" d="M 192.5,156.5 C 193.714,163.307 194.547,170.307 195,177.5C 198.241,180.19 201.741,180.69 205.5,179C 215.675,178.175 225.675,178.342 235.5,179.5C 230.167,179.5 224.833,179.5 219.5,179.5C 219.687,185.212 219.354,190.879 218.5,196.5C 212.895,198.411 207.228,198.744 201.5,197.5C 198.6,196.557 196.267,194.89 194.5,192.5C 193.341,190.145 192.341,187.812 191.5,185.5C 191.701,179.491 192.034,173.491 192.5,167.5C 192.5,163.833 192.5,160.167 192.5,156.5 Z"/></g>
<g><path style="opacity:0.995" fill="#010101" d="M 59.5,179.5 C 59.8333,179.5 60.1667,179.5 60.5,179.5C 74.1667,179.5 87.8333,179.5 101.5,179.5C 101.5,181.167 101.5,182.833 101.5,184.5C 101.5,186.833 101.5,189.167 101.5,191.5C 96.8333,191.5 92.1667,191.5 87.5,191.5C 86.5036,207.325 86.1703,223.325 86.5,239.5C 82.8333,239.5 79.1667,239.5 75.5,239.5C 74.8333,239.5 74.1667,239.5 73.5,239.5C 73.5,223.5 73.5,207.5 73.5,191.5C 70.8333,191.5 68.1667,191.5 65.5,191.5C 63.2646,191.795 61.2646,191.461 59.5,190.5C 59.5,186.833 59.5,183.167 59.5,179.5 Z"/></g>
<g><path style="opacity:0.995" fill="#020404" d="M 235.5,179.5 C 237.792,186.72 240.459,193.72 243.5,200.5C 244.421,205.014 245.921,209.347 248,213.5C 248.513,212.473 249.013,211.473 249.5,210.5C 253.423,200.568 257.257,190.568 261,180.5C 265.737,179.531 270.57,179.197 275.5,179.5C 278.203,198.952 280.203,218.619 281.5,238.5C 276.833,239.833 272.167,239.833 267.5,238.5C 267.304,226.79 266.471,215.123 265,203.5C 261.603,210.857 259.103,218.523 257.5,226.5C 255.061,230.403 253.395,234.737 252.5,239.5C 249.552,239.777 246.719,239.444 244,238.5C 240.201,226.77 236.201,215.103 232,203.5C 230.063,215.406 228.896,227.406 228.5,239.5C 226.5,239.5 224.5,239.5 222.5,239.5C 220.167,239.5 217.833,239.5 215.5,239.5C 215.5,237.833 215.5,236.167 215.5,234.5C 215.5,233.5 215.5,232.5 215.5,231.5C 215.987,224.146 216.653,216.812 217.5,209.5C 218.08,205.19 218.414,200.857 218.5,196.5C 219.354,190.879 219.687,185.212 219.5,179.5C 224.833,179.5 230.167,179.5 235.5,179.5 Z"/></g>
<g><path style="opacity:0.986" fill="#11150f" d="M 296.5,179.5 C 302.628,182.082 303.794,186.082 300,191.5C 298.871,193.141 297.371,194.141 295.5,194.5C 286.472,193.527 284.139,189.027 288.5,181C 291.014,179.748 293.68,179.248 296.5,179.5 Z"/></g>
<g><path style="opacity:0.672" fill="#737575" d="M 59.5,179.5 C 59.5,183.167 59.5,186.833 59.5,190.5C 56.9887,186.808 56.9887,183.142 59.5,179.5 Z"/></g>
<g><path style="opacity:1" fill="#90e3d9" d="M 157.5,158.5 C 162.269,159.198 166.603,160.865 170.5,163.5C 172.634,172.761 176.134,181.428 181,189.5C 189.277,202.932 198.11,215.932 207.5,228.5C 209.971,230.071 212.637,231.071 215.5,231.5C 215.5,232.5 215.5,233.5 215.5,234.5C 214.539,236.265 214.205,238.265 214.5,240.5C 212.616,240.288 211.283,239.288 210.5,237.5C 206.504,237.188 203.171,235.688 200.5,233C 197.493,232.699 194.493,232.865 191.5,233.5C 191.167,233.5 190.833,233.5 190.5,233.5C 190.414,232.504 190.748,231.671 191.5,231C 188.5,229.5 185.5,228 182.5,226.5C 176.963,231.795 171.463,231.795 166,226.5C 165.51,225.207 165.343,223.873 165.5,222.5C 174.5,222.5 183.5,222.5 192.5,222.5C 192.04,207.046 184.04,200.046 168.5,201.5C 170.631,200.686 172.964,200.186 175.5,200C 169.141,191.114 163.975,181.614 160,171.5C 158.316,173.351 156.483,175.018 154.5,176.5C 153.575,175.643 152.908,174.643 152.5,173.5C 152.579,172.07 152.246,170.736 151.5,169.5C 153.149,167.35 154.982,165.35 157,163.5C 157.494,161.866 157.66,160.199 157.5,158.5 Z"/></g>
<g><path style="opacity:0.961" fill="#80dca0" d="M 275.5,179.5 C 275.5,179.167 275.5,178.833 275.5,178.5C 277.827,178.665 279.993,179.331 282,180.5C 286.872,178.696 291.706,178.362 296.5,179.5C 293.68,179.248 291.014,179.748 288.5,181C 284.139,189.027 286.472,193.527 295.5,194.5C 293.701,195.27 292.368,196.603 291.5,198.5C 294.1,199.955 296.767,201.288 299.5,202.5C 295.5,202.5 291.5,202.5 287.5,202.5C 287.5,214.5 287.5,226.5 287.5,238.5C 285.5,238.5 283.5,238.5 281.5,238.5C 280.203,218.619 278.203,198.952 275.5,179.5 Z"/></g>
<g><path style="opacity:0.914" fill="#5edacc" d="M 275.5,178.5 C 275.5,178.833 275.5,179.167 275.5,179.5C 270.57,179.197 265.737,179.531 261,180.5C 257.257,190.568 253.423,200.568 249.5,210.5C 247.683,207.036 245.683,203.702 243.5,200.5C 240.459,193.72 237.792,186.72 235.5,179.5C 240.133,181.884 244.633,184.551 249,187.5C 253.115,185.052 256.948,182.219 260.5,179C 265.489,178.501 270.489,178.334 275.5,178.5 Z"/></g>
<g><path style="opacity:1" fill="#86e0cc" d="M 167.5,151.5 C 168.807,152.153 170.14,152.82 171.5,153.5C 172.696,153.154 172.696,152.654 171.5,152C 174.82,152.265 177.487,153.931 179.5,157C 178.833,157.333 178.167,157.667 177.5,158C 179.743,160.488 181.743,163.154 183.5,166C 182.874,166.75 182.374,167.584 182,168.5C 181.395,166.519 180.395,166.185 179,167.5C 177.887,165.671 176.387,164.837 174.5,165C 177.036,167.705 179.703,170.205 182.5,172.5C 186.185,179.206 189.851,185.873 193.5,192.5C 196.091,198.092 200.091,202.426 205.5,205.5C 209.085,207.806 213.085,209.139 217.5,209.5C 216.653,216.812 215.987,224.146 215.5,231.5C 212.637,231.071 209.971,230.071 207.5,228.5C 198.11,215.932 189.277,202.932 181,189.5C 176.134,181.428 172.634,172.761 170.5,163.5C 171.239,163.631 171.906,163.464 172.5,163C 171.5,162.167 170.5,161.333 169.5,160.5C 170.025,159.808 170.692,159.308 171.5,159C 169.158,157.829 166.824,156.662 164.5,155.5C 165.729,154.719 167.062,154.219 168.5,154C 166.381,153.658 166.047,152.825 167.5,151.5 Z"/></g>
<g><path style="opacity:1" fill="#a6dcde" d="M 108.5,162.5 C 108.5,167.167 108.5,171.833 108.5,176.5C 107.508,176.328 106.842,176.662 106.5,177.5C 105.79,179.893 105.123,182.393 104.5,185C 104.736,187.784 104.736,190.618 104.5,193.5C 102.523,196.778 100.523,200.111 98.5,203.5C 98.8333,204.167 99.1667,204.833 99.5,205.5C 97.9806,207.556 97.1472,209.89 97,212.5C 96.6667,210.167 96.3333,207.833 96,205.5C 94.2054,209.052 92.7054,212.718 91.5,216.5C 91.7391,224.462 91.9058,232.462 92,240.5C 93.5018,242.795 93.6685,245.128 92.5,247.5C 92.7189,248.938 93.2189,250.271 94,251.5C 97.1965,253.667 100.03,256.167 102.5,259C 101.5,260 100.5,261 99.5,262C 103.088,265.588 106.588,269.088 110,272.5C 110.684,271.216 110.517,270.049 109.5,269C 110,268.5 110.5,268 111,267.5C 113.13,270.767 114.963,274.1 116.5,277.5C 116.692,280.601 117.358,283.601 118.5,286.5C 117.609,287.59 116.609,287.59 115.5,286.5C 112.978,283.265 111.311,279.599 110.5,275.5C 109.914,275.291 109.414,274.957 109,274.5C 108.667,276.167 108.333,277.833 108,279.5C 108.022,275.182 106.355,271.848 103,269.5C 102.667,270.167 102.333,270.833 102,271.5C 100,268.833 98,266.167 96,263.5C 95.6012,263.728 95.4346,264.062 95.5,264.5C 87.1366,258.873 78.4699,253.707 69.5,249C 66.2776,246.044 63.9442,242.544 62.5,238.5C 67.2622,244.924 73.2622,249.924 80.5,253.5C 80.8333,253.333 81.1667,253.167 81.5,253C 75.3339,250.331 73.3339,245.831 75.5,239.5C 79.1667,239.5 82.8333,239.5 86.5,239.5C 87.3307,227.674 87.8307,215.674 88,203.5C 88.6924,202.975 89.1924,202.308 89.5,201.5C 88.5585,201.511 87.8919,201.011 87.5,200C 87.9473,197.22 87.9473,194.386 87.5,191.5C 92.1667,191.5 96.8333,191.5 101.5,191.5C 101.5,189.167 101.5,186.833 101.5,184.5C 103.714,182.005 104.881,179.005 105,175.5C 104.796,168.176 104.796,160.843 105,153.5C 105.333,157.167 105.667,160.833 106,164.5C 107.216,162.038 107.882,159.371 108,156.5C 108.495,158.473 108.662,160.473 108.5,162.5 Z"/></g>
<g><path style="opacity:1" fill="#486c6e" d="M 106.5,177.5 C 106.842,176.662 107.508,176.328 108.5,176.5C 112.167,176.5 115.833,176.5 119.5,176.5C 119.5,177.833 119.5,179.167 119.5,180.5C 119.5,188.833 119.5,197.167 119.5,205.5C 118.506,196.348 118.173,187.015 118.5,177.5C 114.5,177.5 110.5,177.5 106.5,177.5 Z"/></g>
<g><path style="opacity:1" fill="#8be4e6" d="M 168.5,201.5 C 162.295,203.097 157.295,206.431 153.5,211.5C 151.154,208.965 148.487,208.298 145.5,209.5C 144.069,207.563 142.402,205.73 140.5,204C 133.045,200.21 126.045,200.71 119.5,205.5C 119.5,197.167 119.5,188.833 119.5,180.5C 120.29,179.391 120.79,178.058 121,176.5C 121.632,178.531 122.799,180.198 124.5,181.5C 125.251,180.624 125.751,179.624 126,178.5C 126.388,179.428 127.055,180.095 128,180.5C 134.086,179.128 140.253,178.295 146.5,178C 148.66,176.668 150.66,175.168 152.5,173.5C 152.908,174.643 153.575,175.643 154.5,176.5C 156.483,175.018 158.316,173.351 160,171.5C 163.975,181.614 169.141,191.114 175.5,200C 172.964,200.186 170.631,200.686 168.5,201.5 Z"/></g>
<g><path style="opacity:0.494" fill="#a3b7b8" d="M 65.5,191.5 C 68.1667,191.5 70.8333,191.5 73.5,191.5C 73.5,207.5 73.5,223.5 73.5,239.5C 72.5672,236.358 71.9006,233.024 71.5,229.5C 72.4682,220.403 72.6348,211.069 72,201.5C 64.9516,205.547 60.6183,211.547 59,219.5C 58.51,218.207 58.3433,216.873 58.5,215.5C 61.282,209.202 65.4486,203.869 71,199.5C 73.7112,193.711 71.8779,191.044 65.5,191.5 Z"/></g>
<g><path style="opacity:1" fill="#030606" d="M 168.5,201.5 C 184.04,200.046 192.04,207.046 192.5,222.5C 183.5,222.5 174.5,222.5 165.5,222.5C 165.343,223.873 165.51,225.207 166,226.5C 171.463,231.795 176.963,231.795 182.5,226.5C 185.5,228 188.5,229.5 191.5,231C 190.748,231.671 190.414,232.504 190.5,233.5C 184.204,238.834 176.871,241.167 168.5,240.5C 154.257,235.682 149.257,226.015 153.5,211.5C 157.295,206.431 162.295,203.097 168.5,201.5 Z"/></g>
<g><path style="opacity:1" fill="#57a691" d="M 218.5,196.5 C 218.414,200.857 218.08,205.19 217.5,209.5C 213.085,209.139 209.085,207.806 205.5,205.5C 207.905,206.768 209.905,206.768 211.5,205.5C 210.41,203.997 209.243,203.664 208,204.5C 205.904,203.285 206.071,202.451 208.5,202C 205.294,201.676 202.961,200.176 201.5,197.5C 207.228,198.744 212.895,198.411 218.5,196.5 Z"/></g>
<g><path style="opacity:0.937" fill="#0a0d07" d="M 321.5,203.5 C 322.26,205.985 323.26,205.985 324.5,203.5C 334.568,199.06 342.735,201.393 349,210.5C 349.832,219.851 349.665,229.184 348.5,238.5C 345.227,239.585 341.894,239.752 338.5,239C 337.333,238.5 336.5,237.667 336,236.5C 336.468,229.654 336.301,222.821 335.5,216C 332.944,211.442 329.277,210.442 324.5,213C 323.789,214.255 322.956,215.421 322,216.5C 321.707,223.91 321.54,231.243 321.5,238.5C 317.5,239.833 313.5,239.833 309.5,238.5C 309.425,227.502 309.092,216.502 308.5,205.5C 308.818,204.353 309.484,203.519 310.5,203C 314.255,202.245 317.922,202.411 321.5,203.5 Z"/></g>
<g><path style="opacity:0.971" fill="#020402" d="M 299.5,202.5 C 299.608,214.363 299.775,226.363 300,238.5C 295.733,239.822 291.566,239.822 287.5,238.5C 287.5,226.5 287.5,214.5 287.5,202.5C 291.5,202.5 295.5,202.5 299.5,202.5 Z"/></g>
<g><path style="opacity:1" fill="#2d5048" d="M 193.5,192.5 C 193.833,192.5 194.167,192.5 194.5,192.5C 196.267,194.89 198.6,196.557 201.5,197.5C 202.961,200.176 205.294,201.676 208.5,202C 206.071,202.451 205.904,203.285 208,204.5C 209.243,203.664 210.41,203.997 211.5,205.5C 209.905,206.768 207.905,206.768 205.5,205.5C 200.091,202.426 196.091,198.092 193.5,192.5 Z"/></g>
<g><path style="opacity:0.992" fill="#769d4f" d="M 321.5,203.5 C 322.5,203.5 323.5,203.5 324.5,203.5C 323.26,205.985 322.26,205.985 321.5,203.5 Z"/></g>
<g><path style="opacity:1" fill="#d2ebec" d="M 73.5,239.5 C 74.1667,239.5 74.8333,239.5 75.5,239.5C 73.3339,245.831 75.3339,250.331 81.5,253C 81.1667,253.167 80.8333,253.333 80.5,253.5C 73.2622,249.924 67.2622,244.924 62.5,238.5C 60.2862,236.424 58.7862,233.758 58,230.5C 57.1837,225.316 57.3503,220.316 58.5,215.5C 58.3433,216.873 58.51,218.207 59,219.5C 60.6183,211.547 64.9516,205.547 72,201.5C 72.6348,211.069 72.4682,220.403 71.5,229.5C 71.9006,233.024 72.5672,236.358 73.5,239.5 Z"/></g>
<g><path style="opacity:1" fill="#5e9092" d="M 106.5,177.5 C 106.5,198.167 106.5,218.833 106.5,239.5C 105.713,224.058 105.046,208.725 104.5,193.5C 104.736,190.618 104.736,187.784 104.5,185C 105.123,182.393 105.79,179.893 106.5,177.5 Z"/></g>
<g><path style="opacity:1" fill="#2a615b" d="M 243.5,200.5 C 245.683,203.702 247.683,207.036 249.5,210.5C 249.013,211.473 248.513,212.473 248,213.5C 245.921,209.347 244.421,205.014 243.5,200.5 Z"/></g>
<g><path style="opacity:1" fill="#7dd9da" d="M 168.5,209.5 C 171.649,209.211 174.649,209.711 177.5,211C 179.037,212.11 179.703,213.61 179.5,215.5C 174.833,215.5 170.167,215.5 165.5,215.5C 165.615,213.053 166.615,211.053 168.5,209.5 Z"/></g>
<g><path style="opacity:1" fill="#7aa1a3" d="M 87.5,191.5 C 87.9473,194.386 87.9473,197.22 87.5,200C 87.8919,201.011 88.5585,201.511 89.5,201.5C 89.1924,202.308 88.6924,202.975 88,203.5C 87.8307,215.674 87.3307,227.674 86.5,239.5C 86.1703,223.325 86.5036,207.325 87.5,191.5 Z"/></g>
<g><path style="opacity:0.941" fill="#171716" d="M 410.5,224.5 C 418.197,222.34 422.863,225.007 424.5,232.5C 421.138,240.963 415.638,242.63 408,237.5C 405.816,232.588 406.649,228.255 410.5,224.5 Z"/></g>
<g><path style="opacity:1" fill="#6dd7b5" d="M 267.5,238.5 C 263.152,238.119 259.486,239.453 256.5,242.5C 257.673,240.659 257.673,238.826 256.5,237C 256.944,235.238 257.444,235.405 258,237.5C 258.81,233.642 258.643,229.976 257.5,226.5C 259.103,218.523 261.603,210.857 265,203.5C 266.471,215.123 267.304,226.79 267.5,238.5 Z"/></g>
<g><path style="opacity:1" fill="#72bfa2" d="M 257.5,226.5 C 258.643,229.976 258.81,233.642 258,237.5C 257.444,235.405 256.944,235.238 256.5,237C 257.673,238.826 257.673,240.659 256.5,242.5C 256.002,245.326 254.669,247.66 252.5,249.5C 251.793,244.601 250.126,244.434 247.5,249C 246.5,249.667 245.5,249.667 244.5,249C 246.351,247.316 248.018,245.483 249.5,243.5C 249,242.5 248.5,241.5 248,240.5C 245.21,244.334 241.71,246.834 237.5,248C 238.634,246.984 238.301,246.317 236.5,246C 237.167,245.333 237.833,244.667 238.5,244C 237.5,243 236.5,242 235.5,241C 237.349,239.907 239.016,238.574 240.5,237C 240.167,236.833 239.833,236.667 239.5,236.5C 236.429,238.898 233.095,240.898 229.5,242.5C 227.249,241.135 225.249,241.469 223.5,243.5C 222.304,243.154 222.304,242.654 223.5,242C 222.5,241.667 221.5,241.333 220.5,241C 221.416,240.722 222.082,240.222 222.5,239.5C 224.5,239.5 226.5,239.5 228.5,239.5C 228.896,227.406 230.063,215.406 232,203.5C 236.201,215.103 240.201,226.77 244,238.5C 246.719,239.444 249.552,239.777 252.5,239.5C 253.395,234.737 255.061,230.403 257.5,226.5 Z"/></g>
<g><path style="opacity:1" fill="#68dde2" d="M 153.5,211.5 C 149.257,226.015 154.257,235.682 168.5,240.5C 162.477,253.274 152.311,259.941 138,260.5C 135.75,259.292 133.583,257.959 131.5,256.5C 131.167,257.167 130.833,257.833 130.5,258.5C 125.161,254.994 120.661,250.66 117,245.5C 115.878,243.593 115.045,241.593 114.5,239.5C 115.833,239.5 117.167,239.5 118.5,239.5C 118.334,231.826 118.5,224.159 119,216.5C 119.465,215.069 120.299,213.903 121.5,213C 126.277,210.339 130.11,211.172 133,215.5C 133.5,223.493 133.666,231.493 133.5,239.5C 137.833,239.5 142.167,239.5 146.5,239.5C 146.807,229.418 146.474,219.418 145.5,209.5C 148.487,208.298 151.154,208.965 153.5,211.5 Z"/></g>
<g><path style="opacity:0.059" fill="#d5ecb5" d="M 385.5,238.5 C 384.5,238.5 383.5,238.5 382.5,238.5C 384.283,234.94 385.283,234.94 385.5,238.5 Z"/></g>
<g><path style="opacity:1" fill="#adebeb" d="M 214.5,240.5 C 213.167,241.833 211.833,243.167 210.5,244.5C 208.983,244.511 207.816,245.177 207,246.5C 204.586,245.572 202.086,245.739 199.5,247C 202.803,248.007 203.97,250.173 203,253.5C 202.683,251.699 202.016,251.366 201,252.5C 199.546,255.071 198.38,257.738 197.5,260.5C 197.528,262.582 196.861,264.416 195.5,266C 192.312,267.316 188.978,267.816 185.5,267.5C 182.375,266.521 179.042,266.187 175.5,266.5C 181.987,258.528 186.654,249.528 189.5,239.5C 191.541,238.764 193.541,237.931 195.5,237C 193.907,236.051 192.574,234.885 191.5,233.5C 194.493,232.865 197.493,232.699 200.5,233C 203.171,235.688 206.504,237.188 210.5,237.5C 211.283,239.288 212.616,240.288 214.5,240.5 Z"/></g>
<g><path style="opacity:1" fill="#b6d6d2" d="M 238.5,261.5 C 226.976,268.381 214.309,271.548 200.5,271C 199.349,276.386 197.515,281.553 195,286.5C 193.961,287.71 192.794,288.71 191.5,289.5C 189.178,289.177 186.678,289.177 184,289.5C 182.775,289.138 181.609,288.638 180.5,288C 182.79,286.223 184.457,284.056 185.5,281.5C 186.713,277.791 188.88,274.791 192,272.5C 192.359,275.544 193.026,275.878 194,273.5C 194.167,274 194.333,274.5 194.5,275C 193.67,276.465 193.504,277.965 194,279.5C 195.044,277.285 195.71,274.952 196,272.5C 196.333,274.833 196.667,277.167 197,279.5C 197.498,276.183 197.665,272.85 197.5,269.5C 198.239,269.631 198.906,269.464 199.5,269C 198.484,268.481 197.818,267.647 197.5,266.5C 197.97,264.226 198.97,262.226 200.5,260.5C 199.575,259.438 198.575,259.438 197.5,260.5C 198.38,257.738 199.546,255.071 201,252.5C 202.016,251.366 202.683,251.699 203,253.5C 203.97,250.173 202.803,248.007 199.5,247C 202.086,245.739 204.586,245.572 207,246.5C 207.816,245.177 208.983,244.511 210.5,244.5C 211.583,244.461 212.583,244.127 213.5,243.5C 213.833,244.167 214.167,244.833 214.5,245.5C 215.768,244.572 217.101,244.405 218.5,245C 216.668,245.748 215.001,246.748 213.5,248C 214.549,248.492 215.549,248.326 216.5,247.5C 216.833,248.167 217.167,248.833 217.5,249.5C 219.545,247.525 221.212,247.525 222.5,249.5C 226.905,246.351 227.905,246.851 225.5,251C 226.88,252.324 227.214,253.657 226.5,255C 228.256,255.14 229.922,254.64 231.5,253.5C 231.109,254.891 231.942,255.891 234,256.5C 235.814,255.24 237.647,255.24 239.5,256.5C 239.023,257.478 238.357,258.311 237.5,259C 238.634,260.016 238.301,260.683 236.5,261C 237.094,261.464 237.761,261.631 238.5,261.5 Z"/></g>
<g><path style="opacity:1" fill="#a0d5bf" d="M 215.5,234.5 C 215.5,236.167 215.5,237.833 215.5,239.5C 217.833,239.5 220.167,239.5 222.5,239.5C 222.082,240.222 221.416,240.722 220.5,241C 221.5,241.333 222.5,241.667 223.5,242C 222.304,242.654 222.304,243.154 223.5,243.5C 225.249,241.469 227.249,241.135 229.5,242.5C 233.095,240.898 236.429,238.898 239.5,236.5C 239.833,236.667 240.167,236.833 240.5,237C 239.016,238.574 237.349,239.907 235.5,241C 236.5,242 237.5,243 238.5,244C 237.833,244.667 237.167,245.333 236.5,246C 238.301,246.317 238.634,246.984 237.5,248C 241.71,246.834 245.21,244.334 248,240.5C 248.5,241.5 249,242.5 249.5,243.5C 248.018,245.483 246.351,247.316 244.5,249C 245.5,249.667 246.5,249.667 247.5,249C 250.126,244.434 251.793,244.601 252.5,249.5C 249.104,254.882 244.437,258.882 238.5,261.5C 237.761,261.631 237.094,261.464 236.5,261C 238.301,260.683 238.634,260.016 237.5,259C 238.357,258.311 239.023,257.478 239.5,256.5C 237.647,255.24 235.814,255.24 234,256.5C 231.942,255.891 231.109,254.891 231.5,253.5C 229.922,254.64 228.256,255.14 226.5,255C 227.214,253.657 226.88,252.324 225.5,251C 227.905,246.851 226.905,246.351 222.5,249.5C 221.212,247.525 219.545,247.525 217.5,249.5C 217.167,248.833 216.833,248.167 216.5,247.5C 215.549,248.326 214.549,248.492 213.5,248C 215.001,246.748 216.668,245.748 218.5,245C 217.101,244.405 215.768,244.572 214.5,245.5C 214.167,244.833 213.833,244.167 213.5,243.5C 212.583,244.127 211.583,244.461 210.5,244.5C 211.833,243.167 213.167,241.833 214.5,240.5C 214.205,238.265 214.539,236.265 215.5,234.5 Z"/></g>
<g><path style="opacity:1" fill="#4b5c5e" d="M 197.5,269.5 C 192.699,269.407 188.699,268.74 185.5,267.5C 188.978,267.816 192.312,267.316 195.5,266C 196.861,264.416 197.528,262.582 197.5,260.5C 198.575,259.438 199.575,259.438 200.5,260.5C 198.97,262.226 197.97,264.226 197.5,266.5C 197.818,267.647 198.484,268.481 199.5,269C 198.906,269.464 198.239,269.631 197.5,269.5 Z"/></g>
<g><path style="opacity:1" fill="#99ccce" d="M 175.5,266.5 C 179.042,266.187 182.375,266.521 185.5,267.5C 188.699,268.74 192.699,269.407 197.5,269.5C 197.665,272.85 197.498,276.183 197,279.5C 196.667,277.167 196.333,274.833 196,272.5C 195.71,274.952 195.044,277.285 194,279.5C 193.504,277.965 193.67,276.465 194.5,275C 194.333,274.5 194.167,274 194,273.5C 193.026,275.878 192.359,275.544 192,272.5C 188.88,274.791 186.713,277.791 185.5,281.5C 183.519,283.144 181.519,284.81 179.5,286.5C 179.167,286.333 178.833,286.167 178.5,286C 183.844,279.847 183.511,279.347 177.5,284.5C 176.522,284.023 175.689,283.357 175,282.5C 173.778,284.696 171.944,286.196 169.5,287C 172.612,287.851 172.946,289.017 170.5,290.5C 168.185,289.766 166.352,288.432 165,286.5C 163.542,287.747 162.042,287.747 160.5,286.5C 159.304,286.846 159.304,287.346 160.5,288C 162.623,288.815 164.623,289.815 166.5,291C 165.551,291.617 164.718,291.451 164,290.5C 162.691,292.891 161.691,292.891 161,290.5C 160.213,291.711 159.546,292.711 159,293.5C 156.927,293.239 154.927,293.239 153,293.5C 151.908,291.869 151.075,290.202 150.5,288.5C 150.167,287.833 149.833,287.167 149.5,286.5C 152.242,285.442 152.909,283.609 151.5,281C 157.518,279.325 157.851,276.992 152.5,274C 154.167,273.667 155.833,273.333 157.5,273C 159.224,272.552 159.891,271.718 159.5,270.5C 160.167,270.833 160.833,271.167 161.5,271.5C 165.608,268.305 170.274,266.639 175.5,266.5 Z"/></g>
<g><path style="opacity:1" fill="#91e1e4" d="M 104.5,193.5 C 105.046,208.725 105.713,224.058 106.5,239.5C 109.167,239.5 111.833,239.5 114.5,239.5C 115.045,241.593 115.878,243.593 117,245.5C 120.661,250.66 125.161,254.994 130.5,258.5C 130.833,257.833 131.167,257.167 131.5,256.5C 133.583,257.959 135.75,259.292 138,260.5C 152.311,259.941 162.477,253.274 168.5,240.5C 176.871,241.167 184.204,238.834 190.5,233.5C 190.833,233.5 191.167,233.5 191.5,233.5C 192.574,234.885 193.907,236.051 195.5,237C 193.541,237.931 191.541,238.764 189.5,239.5C 186.654,249.528 181.987,258.528 175.5,266.5C 170.274,266.639 165.608,268.305 161.5,271.5C 160.833,271.167 160.167,270.833 159.5,270.5C 159.891,271.718 159.224,272.552 157.5,273C 155.833,273.333 154.167,273.667 152.5,274C 157.851,276.992 157.518,279.325 151.5,281C 152.909,283.609 152.242,285.442 149.5,286.5C 148.438,284.243 146.772,283.077 144.5,283C 145.167,283.667 145.833,284.333 146.5,285C 141.467,286.567 137.633,285.067 135,280.5C 134.837,282.387 135.671,283.887 137.5,285C 133.156,284.632 128.822,283.798 124.5,282.5C 123.914,282.709 123.414,283.043 123,283.5C 122.482,280.054 120.648,277.721 117.5,276.5C 116.893,276.624 116.56,276.957 116.5,277.5C 114.963,274.1 113.13,270.767 111,267.5C 110.5,268 110,268.5 109.5,269C 110.517,270.049 110.684,271.216 110,272.5C 106.588,269.088 103.088,265.588 99.5,262C 100.5,261 101.5,260 102.5,259C 100.03,256.167 97.1965,253.667 94,251.5C 93.2189,250.271 92.7189,248.938 92.5,247.5C 93.6685,245.128 93.5018,242.795 92,240.5C 91.9058,232.462 91.7391,224.462 91.5,216.5C 92.7054,212.718 94.2054,209.052 96,205.5C 96.3333,207.833 96.6667,210.167 97,212.5C 97.1472,209.89 97.9806,207.556 99.5,205.5C 99.1667,204.833 98.8333,204.167 98.5,203.5C 100.523,200.111 102.523,196.778 104.5,193.5 Z"/></g>
<g><path style="opacity:1" fill="#b8e6e8" d="M 116.5,277.5 C 116.56,276.957 116.893,276.624 117.5,276.5C 120.648,277.721 122.482,280.054 123,283.5C 123.414,283.043 123.914,282.709 124.5,282.5C 128.822,283.798 133.156,284.632 137.5,285C 135.671,283.887 134.837,282.387 135,280.5C 137.633,285.067 141.467,286.567 146.5,285C 145.833,284.333 145.167,283.667 144.5,283C 146.772,283.077 148.438,284.243 149.5,286.5C 149.833,287.167 150.167,287.833 150.5,288.5C 148.602,290.25 147.269,292.416 146.5,295C 140.065,294.146 139.899,294.979 146,297.5C 148.033,296.984 148.033,297.65 146,299.5C 143.024,299.497 139.857,299.163 136.5,298.5C 132.817,297.664 129.15,297.164 125.5,297C 126.5,298 127.5,299 128.5,300C 128.167,300.167 127.833,300.333 127.5,300.5C 124.659,297.156 121.159,294.822 117,293.5C 117.333,295.5 117.667,297.5 118,299.5C 116.172,297.919 114.172,296.585 112,295.5C 111.333,299.5 110.667,299.5 110,295.5C 108.846,294.257 107.512,293.257 106,292.5C 105.502,295.482 105.335,298.482 105.5,301.5C 104.091,292.632 102.591,283.632 101,274.5C 99.7451,270.771 97.9118,267.438 95.5,264.5C 95.4346,264.062 95.6012,263.728 96,263.5C 98,266.167 100,268.833 102,271.5C 102.333,270.833 102.667,270.167 103,269.5C 106.355,271.848 108.022,275.182 108,279.5C 108.333,277.833 108.667,276.167 109,274.5C 109.414,274.957 109.914,275.291 110.5,275.5C 111.311,279.599 112.978,283.265 115.5,286.5C 116.609,287.59 117.609,287.59 118.5,286.5C 117.358,283.601 116.692,280.601 116.5,277.5 Z"/></g>
<g><path style="opacity:1" fill="#9ab7b9" d="M 185.5,281.5 C 184.457,284.056 182.79,286.223 180.5,288C 181.609,288.638 182.775,289.138 184,289.5C 186.678,289.177 189.178,289.177 191.5,289.5C 187.889,291.028 184.222,291.361 180.5,290.5C 175.184,291.442 169.85,292.275 164.5,293C 153.701,297.898 143.701,304.065 134.5,311.5C 132.518,311.005 130.518,310.505 128.5,310C 131.232,309.587 133.899,308.92 136.5,308C 134.5,307.667 132.5,307.333 130.5,307C 134.134,306.844 137.467,305.844 140.5,304C 137.833,303.667 135.167,303.333 132.5,303C 135.882,302.824 139.215,302.324 142.5,301.5C 140.406,300.482 138.406,299.482 136.5,298.5C 139.857,299.163 143.024,299.497 146,299.5C 148.033,297.65 148.033,296.984 146,297.5C 139.899,294.979 140.065,294.146 146.5,295C 147.269,292.416 148.602,290.25 150.5,288.5C 151.075,290.202 151.908,291.869 153,293.5C 154.927,293.239 156.927,293.239 159,293.5C 159.546,292.711 160.213,291.711 161,290.5C 161.691,292.891 162.691,292.891 164,290.5C 164.718,291.451 165.551,291.617 166.5,291C 164.623,289.815 162.623,288.815 160.5,288C 159.304,287.346 159.304,286.846 160.5,286.5C 162.042,287.747 163.542,287.747 165,286.5C 166.352,288.432 168.185,289.766 170.5,290.5C 172.946,289.017 172.612,287.851 169.5,287C 171.944,286.196 173.778,284.696 175,282.5C 175.689,283.357 176.522,284.023 177.5,284.5C 183.511,279.347 183.844,279.847 178.5,286C 178.833,286.167 179.167,286.333 179.5,286.5C 181.519,284.81 183.519,283.144 185.5,281.5 Z"/></g>
<g><path style="opacity:1" fill="#d0eaeb" d="M 136.5,298.5 C 138.406,299.482 140.406,300.482 142.5,301.5C 139.215,302.324 135.882,302.824 132.5,303C 135.167,303.333 137.833,303.667 140.5,304C 137.467,305.844 134.134,306.844 130.5,307C 132.5,307.333 134.5,307.667 136.5,308C 133.899,308.92 131.232,309.587 128.5,310C 130.518,310.505 132.518,311.005 134.5,311.5C 125.01,317.242 116.176,316.242 108,308.5C 106.864,306.257 106.03,303.924 105.5,301.5C 105.335,298.482 105.502,295.482 106,292.5C 107.512,293.257 108.846,294.257 110,295.5C 110.667,299.5 111.333,299.5 112,295.5C 114.172,296.585 116.172,297.919 118,299.5C 117.667,297.5 117.333,295.5 117,293.5C 121.159,294.822 124.659,297.156 127.5,300.5C 127.833,300.333 128.167,300.167 128.5,300C 127.5,299 126.5,298 125.5,297C 129.15,297.164 132.817,297.664 136.5,298.5 Z"/></g>
</svg>
